<svg height="512pt" viewBox="0 -23 512 512" width="512pt" xmlns="http://www.w3.org/2000/svg"><path d="m0 465.457031h512l-256-465.457031zm50.664062-29.957031 205.335938-373.339844 205.335938 373.339844zm0 0"/><path d="m233.53125 405.542969h50.003906c49.933594 0 87.996094-44.886719 74.769532-94.300781l-.1875-.707032-34.027344-90.589844-30.269532 15.136719-33.808593-84.527343-92.382813 123.175781c-40.375 53.832031-2.136718 131.8125 65.902344 131.8125zm22.46875-29.957031c-8.257812 0-14.976562-6.71875-14.976562-14.980469 0-2.667969.667968-5.183594 1.988281-7.46875l12.988281-22.492188 12.988281 22.492188c1.320313 2.289062 1.988281 4.800781 1.988281 7.46875 0 8.261719-6.714843 14.980469-14.976562 14.980469zm-64.40625-83.878907 60.398438-80.53125 26.101562 65.257813 29.644531-14.820313 21.800781 58.03125c5.738282 22.824219-6.464843 45.769531-30.394531 53.492188 1.160157-3.980469 1.792969-8.183594 1.792969-12.53125 0-7.882813-2.078125-15.644531-6.003906-22.449219l-38.933594-67.414062-38.929688 67.417968c-3.929687 6.800782-6.003906 14.5625-6.003906 22.445313 0 3.609375.4375 7.113281 1.246094 10.476562-30.921875-13.75-40.863281-52.515625-20.71875-79.375zm0 0"/></svg>